<svg width="390" height="274" viewBox="0 0 390 274" fill="none" xmlns="http://www.w3.org/2000/svg">
<g clip-path="url(#clip0)">
<path d="M327.227 213.202C325.979 203.18 319.757 193.305 310.183 190.043C313.959 200.359 313.958 211.675 310.181 221.99C308.71 225.963 306.659 230.229 308.043 234.233C308.904 236.725 311.01 238.631 313.365 239.823C315.719 241.014 318.332 241.582 320.913 242.139L321.421 242.558C325.517 233.324 328.476 223.224 327.227 213.202Z" fill="#F0F0F0"/>
<path d="M310.088 190.233C315.664 196.47 319.129 204.302 319.992 212.617C320.21 214.403 320.144 216.213 319.797 217.979C319.403 219.689 318.558 221.262 317.35 222.536C316.247 223.745 314.978 224.855 314.189 226.312C313.796 227.063 313.567 227.889 313.516 228.736C313.465 229.582 313.594 230.429 313.895 231.222C314.591 233.217 315.965 234.844 317.363 236.387C318.916 238.101 320.556 239.857 321.215 242.13C321.295 242.405 321.719 242.265 321.639 241.99C320.491 238.037 316.646 235.791 314.813 232.23C313.958 230.568 313.599 228.639 314.401 226.885C315.102 225.352 316.409 224.206 317.537 222.99C318.734 221.765 319.612 220.266 320.096 218.624C320.531 216.881 320.667 215.077 320.497 213.289C320.177 209.257 319.224 205.3 317.674 201.563C315.928 197.288 313.462 193.343 310.383 189.899C310.193 189.686 309.899 190.021 310.088 190.233V190.233Z" fill="white"/>
<path d="M319.872 209.923C321.25 209.589 322.464 208.777 323.297 207.632C324.13 206.487 324.529 205.083 324.422 203.672C324.399 203.387 323.953 203.408 323.976 203.694C324.079 205.008 323.707 206.316 322.929 207.38C322.151 208.445 321.017 209.197 319.732 209.5C319.453 209.566 319.594 209.989 319.872 209.923Z" fill="white"/>
<path d="M317.99 221.996C315.502 220.512 313.665 218.147 312.846 215.372C312.765 215.097 312.341 215.237 312.422 215.511C313.28 218.398 315.197 220.855 317.789 222.393C318.037 222.54 318.236 222.141 317.99 221.996V221.996Z" fill="white"/>
<path d="M315.514 197.71C315.008 197.95 314.45 198.061 313.89 198.033C313.331 198.004 312.787 197.838 312.308 197.548C312.063 197.398 311.864 197.797 312.107 197.945C312.638 198.263 313.239 198.446 313.857 198.479C314.475 198.512 315.092 198.393 315.654 198.133C315.709 198.113 315.754 198.072 315.78 198.02C315.807 197.968 315.812 197.908 315.796 197.852C315.777 197.796 315.737 197.749 315.684 197.723C315.631 197.696 315.57 197.692 315.514 197.71V197.71Z" fill="white"/>
<path d="M281.001 207.944C281.152 208.042 281.302 208.14 281.453 208.241C283.469 209.565 285.374 211.05 287.15 212.681C287.289 212.805 287.428 212.933 287.564 213.061C291.799 217.037 295.258 221.765 297.765 227.002C298.76 229.087 299.596 231.244 300.263 233.456C301.185 236.51 301.941 239.895 303.766 242.393C303.954 242.656 304.158 242.907 304.376 243.144H320.869C320.906 243.126 320.944 243.111 320.982 243.092L321.64 243.122C321.614 243.005 321.584 242.885 321.557 242.769C321.542 242.701 321.523 242.634 321.508 242.566C321.497 242.521 321.486 242.476 321.478 242.434C321.475 242.419 321.471 242.404 321.467 242.393C321.46 242.352 321.448 242.314 321.441 242.277C321.275 241.604 321.104 240.932 320.929 240.259C320.929 240.256 320.929 240.256 320.925 240.252C319.574 235.131 317.783 230.079 315.281 225.458C315.206 225.319 315.13 225.176 315.048 225.037C313.908 222.961 312.601 220.98 311.138 219.117C310.334 218.099 309.478 217.122 308.575 216.19C306.237 213.787 303.535 211.766 300.568 210.202C294.653 207.084 287.804 205.889 281.483 207.794C281.321 207.843 281.163 207.892 281.001 207.944Z" fill="#F0F0F0"/>
<path d="M281.038 208.153C289.251 209.782 296.741 213.952 302.444 220.072C303.695 221.368 304.734 222.853 305.522 224.472C306.239 226.073 306.513 227.837 306.316 229.58C306.165 231.209 305.822 232.858 306.07 234.496C306.209 235.332 306.524 236.129 306.994 236.835C307.464 237.541 308.078 238.14 308.796 238.593C310.556 239.767 312.633 240.24 314.68 240.632C316.954 241.068 319.322 241.484 321.219 242.902C321.449 243.073 321.703 242.707 321.473 242.536C318.172 240.069 313.748 240.587 310.137 238.846C308.452 238.033 307.002 236.709 306.585 234.826C306.22 233.18 306.572 231.479 306.74 229.831C306.957 228.134 306.754 226.409 306.15 224.807C305.447 223.154 304.467 221.631 303.253 220.306C300.566 217.279 297.419 214.692 293.927 212.64C289.955 210.277 285.608 208.609 281.072 207.709C280.792 207.654 280.759 208.098 281.038 208.153V208.153Z" fill="white"/>
<path d="M300.724 217.994C301.623 216.899 302.102 215.521 302.077 214.106C302.052 212.691 301.524 211.331 300.587 210.268C300.397 210.054 300.054 210.339 300.245 210.554C301.119 211.541 301.611 212.808 301.632 214.126C301.652 215.444 301.2 216.726 300.357 217.74C300.175 217.961 300.542 218.213 300.724 217.994V217.994Z" fill="white"/>
<path d="M306.502 228.765C303.621 229.076 300.728 228.292 298.4 226.568C298.169 226.397 297.916 226.763 298.146 226.934C300.572 228.723 303.584 229.533 306.581 229.202C306.867 229.171 306.786 228.733 306.502 228.765V228.765Z" fill="white"/>
<path d="M289.879 210.862C289.62 211.358 289.242 211.782 288.778 212.096C288.314 212.409 287.779 212.603 287.222 212.659C286.936 212.688 287.017 213.125 287.301 213.097C287.917 213.032 288.507 212.817 289.02 212.472C289.534 212.127 289.954 211.661 290.246 211.115C290.278 211.066 290.29 211.007 290.279 210.95C290.269 210.892 290.237 210.841 290.19 210.806C290.141 210.772 290.081 210.76 290.023 210.77C289.965 210.781 289.913 210.814 289.879 210.862V210.862Z" fill="white"/>
<path d="M104.607 39H241.272V83.7916H236.096V95.5061L224.362 83.7916H104.607V39Z" fill="#E4E4E4"/>
<path d="M237.664 79.3828H108.215V43.1739H209.473C216.947 43.1823 224.113 46.1502 229.398 51.4265C234.683 56.7028 237.656 63.8566 237.664 71.3184V79.3828Z" fill="white"/>
<path d="M195.665 103.395H59V148.186H64.1766V159.901L75.9107 148.186H195.665V103.395Z" fill="#E4E4E4"/>
<path d="M192.058 143.778H85.6122C79.5132 143.771 73.6661 141.349 69.3535 137.044C65.0409 132.738 62.615 126.901 62.6081 120.812V107.569H192.058V143.778Z" fill="white"/>
<path d="M182.721 118.563H74.2111V120.446H182.721V118.563Z" fill="#DD1581"/>
<path d="M182.525 125.077H74.2111V126.96H182.525V125.077Z" fill="#E6E6E6"/>
<path d="M182.419 131.59H74.2111V133.473H182.419V131.59Z" fill="#E6E6E6"/>
<path d="M149.833 68.7314L142.959 61.8685C142.034 60.9451 141.503 59.6995 141.479 58.3937C141.455 57.0879 141.939 55.8236 142.829 54.8666C143.719 53.9096 144.947 53.3345 146.253 53.2623C147.559 53.19 148.842 53.6262 149.833 54.4791C150.824 53.6263 152.107 53.1902 153.413 53.2626C154.719 53.3349 155.946 53.9099 156.837 54.8668C157.727 55.8238 158.211 57.088 158.187 58.3937C158.162 59.6995 157.632 60.9451 156.707 61.8685L149.833 68.7314ZM146.533 54.0284C145.686 54.0279 144.858 54.2782 144.154 54.7476C143.45 55.217 142.901 55.8844 142.577 56.6654C142.252 57.4464 142.168 58.3058 142.333 59.1349C142.498 59.964 142.906 60.7254 143.505 61.3229L149.833 67.6401L156.161 61.3229C156.559 60.9261 156.874 60.4549 157.09 59.9362C157.305 59.4176 157.416 58.8616 157.416 58.3001C157.417 57.7386 157.306 57.1826 157.091 56.6638C156.876 56.1451 156.56 55.6737 156.162 55.2767C155.765 54.8796 155.293 54.5647 154.773 54.3499C154.253 54.1351 153.696 54.0246 153.134 54.0248C152.572 54.0249 152.015 54.1357 151.495 54.3508C150.976 54.5659 150.504 54.8811 150.106 55.2783L149.833 55.5511L149.56 55.2783C149.162 54.8812 148.691 54.5664 148.171 54.3519C147.652 54.1374 147.095 54.0275 146.533 54.0285L146.533 54.0284Z" fill="#E4295D"/>
<path d="M173.795 57.5033C173.583 57.2925 173.296 57.1742 172.997 57.1744C172.698 57.1746 172.411 57.2934 172.199 57.5046C171.988 57.7157 171.869 58.0021 171.869 58.3008C171.868 58.5995 171.987 58.8862 172.198 59.0977L172.198 59.0979L173.795 60.6924L175.392 59.0979C175.498 58.9932 175.581 58.8689 175.638 58.7321C175.695 58.5952 175.724 58.4485 175.725 58.3002C175.725 58.152 175.696 58.0052 175.639 57.8683C175.582 57.7313 175.499 57.6068 175.394 57.502C175.289 57.3972 175.164 57.3141 175.027 57.2574C174.89 57.2007 174.743 57.1716 174.594 57.1717C174.446 57.1718 174.299 57.2012 174.162 57.2581C174.025 57.3149 173.9 57.3983 173.795 57.5032L173.795 57.5033Z" fill="#E4295D"/>
<path d="M167.225 57.5033C167.013 57.2921 166.726 57.1735 166.427 57.1736C166.127 57.1736 165.84 57.2924 165.628 57.5037C165.417 57.7151 165.298 58.0017 165.298 58.3006C165.297 58.5995 165.416 58.8862 165.628 59.0977L165.628 59.0979L167.225 60.6924L168.822 59.0979C168.927 58.9932 169.011 58.8689 169.068 58.7321C169.125 58.5952 169.154 58.4485 169.154 58.3002C169.154 58.152 169.125 58.0052 169.069 57.8683C169.012 57.7313 168.929 57.6068 168.824 57.502C168.719 57.3972 168.594 57.3141 168.457 57.2574C168.32 57.2007 168.173 57.1716 168.024 57.1717C167.876 57.1718 167.729 57.2012 167.592 57.2581C167.454 57.3149 167.33 57.3983 167.225 57.5032L167.225 57.5033Z" fill="#E4295D"/>
<path d="M170.657 69.4596C168.976 69.4596 167.332 68.9617 165.934 68.029C164.535 67.0962 163.445 65.7705 162.802 64.2193C162.158 62.6682 161.99 60.9614 162.318 59.3147C162.646 57.6681 163.456 56.1555 164.645 54.9683C165.834 53.7812 167.349 52.9727 168.999 52.6451C170.648 52.3176 172.358 52.4857 173.911 53.1282C175.465 53.7707 176.793 54.8587 177.727 56.2547C178.661 57.6507 179.16 59.2919 179.16 60.9708V60.9708C179.158 63.2214 178.261 65.3791 176.667 66.9705C175.073 68.5619 172.912 69.4571 170.657 69.4596V69.4596ZM170.657 53.2537C169.129 53.2537 167.634 53.7063 166.363 54.5543C165.092 55.4023 164.101 56.6075 163.516 58.0176C162.931 59.4277 162.778 60.9794 163.076 62.4763C163.374 63.9733 164.111 65.3484 165.192 66.4276C166.273 67.5069 167.65 68.2418 169.149 68.5396C170.649 68.8374 172.203 68.6846 173.615 68.1005C175.028 67.5164 176.235 66.5273 177.084 65.2582C177.934 63.9891 178.387 62.4971 178.387 60.9708C178.387 59.9574 178.187 58.9539 177.799 58.0176C177.41 57.0813 176.841 56.2306 176.123 55.514C175.405 54.7974 174.553 54.229 173.615 53.8412C172.678 53.4533 171.672 53.2537 170.657 53.2537V53.2537Z" fill="#E4295D"/>
<path d="M191.528 69.4596C189.846 69.4596 188.202 68.9617 186.804 68.029C185.406 67.0962 184.316 65.7705 183.672 64.2193C183.029 62.6682 182.86 60.9614 183.188 59.3147C183.516 57.6681 184.326 56.1555 185.515 54.9683C186.704 53.7812 188.22 52.9727 189.869 52.6451C191.518 52.3176 193.228 52.4857 194.782 53.1282C196.335 53.7707 197.663 54.8587 198.597 56.2547C199.532 57.6507 200.03 59.2919 200.03 60.9708V60.9708C200.028 63.2214 199.131 65.3791 197.537 66.9705C195.943 68.5619 193.782 69.4571 191.528 69.4596ZM191.528 53.2537C189.999 53.2537 188.504 53.7063 187.233 54.5543C185.962 55.4023 184.971 56.6075 184.386 58.0176C183.801 59.4277 183.648 60.9794 183.946 62.4763C184.245 63.9733 184.981 65.3484 186.062 66.4276C187.143 67.5069 188.52 68.2418 190.02 68.5396C191.519 68.8374 193.073 68.6846 194.486 68.1005C195.898 67.5164 197.105 66.5273 197.955 65.2582C198.804 63.9891 199.257 62.4971 199.257 60.9708C199.257 59.9574 199.058 58.9539 198.669 58.0176C198.281 57.0813 197.711 56.2306 196.993 55.514C196.276 54.7974 195.424 54.229 194.486 53.8412C193.548 53.4533 192.543 53.2537 191.528 53.2537V53.2537Z" fill="#E4295D"/>
<path d="M195.006 60.1991C196.073 60.1991 196.939 59.3353 196.939 58.2698C196.939 57.2043 196.073 56.3405 195.006 56.3405C193.939 56.3405 193.074 57.2043 193.074 58.2698C193.074 59.3353 193.939 60.1991 195.006 60.1991Z" fill="#E4295D"/>
<path d="M188.436 60.1991C189.503 60.1991 190.368 59.3353 190.368 58.2698C190.368 57.2043 189.503 56.3405 188.436 56.3405C187.369 56.3405 186.503 57.2043 186.503 58.2698C186.503 59.3353 187.369 60.1991 188.436 60.1991Z" fill="#E4295D"/>
<path d="M189.119 62.5142C188.33 67.9604 194.588 69.0651 193.961 62.514C193.999 62.5095 189.371 62.5176 189.119 62.5142Z" fill="#E4295D"/>
<path d="M167.68 63.6445C169.447 66.0165 172.502 66.2295 174.136 63.6445H167.68Z" fill="#E4295D"/>
<path d="M278.598 239.036H273.984L271.79 221.272H278.598L278.598 239.036Z" fill="#9E616A"/>
<path d="M279.774 243.501L264.899 243.5V243.312C264.899 241.779 265.509 240.309 266.595 239.225C267.681 238.141 269.153 237.532 270.689 237.532H270.689L279.774 237.533L279.774 243.501Z" fill="#2F2E41"/>
<path d="M243.837 238.885L239.394 237.646L242.068 219.947L248.626 221.776L243.837 238.885Z" fill="#9E616A"/>
<path d="M243.767 243.501L229.441 239.504L229.492 239.323C229.905 237.847 230.889 236.595 232.227 235.843C233.564 235.09 235.147 234.899 236.626 235.312L236.626 235.312L245.376 237.753L243.767 243.501Z" fill="#2F2E41"/>
<path d="M267.684 90.2241C273.258 90.2241 277.776 85.713 277.776 80.1483C277.776 74.5835 273.258 70.0724 267.684 70.0724C262.11 70.0724 257.592 74.5835 257.592 80.1483C257.592 85.713 262.11 90.2241 267.684 90.2241Z" fill="#9E616A"/>
<path d="M272.461 130.582L273.261 136.05C273.261 136.05 283.353 156.079 272.399 165.909C272.399 165.909 256.03 215.192 251.353 221.827L247.443 229.996L239.917 228.869L244.584 200.815L252.461 160.748L253.63 129.476C253.63 129.476 270.861 128.247 272.461 130.582Z" fill="#2F2E41"/>
<path d="M270.553 164.673L276.092 196.016C276.092 196.016 279.045 210.393 279.292 215.922C279.538 221.452 280.522 228.578 280.522 228.578L270.553 230.176L260.707 188.019L270.553 164.673Z" fill="#2F2E41"/>
<path d="M278.674 103.395L277.957 121.64L274.172 130.001L272.769 133.101L252.461 132.855L254.553 118.724C251.599 111.106 258.615 108.034 258.615 108.034L264.522 101.749L263.999 93.6276L272.892 91.9373C277.519 91.0577 275.288 97.76 275.288 97.76C281.442 97.1456 278.674 103.395 278.674 103.395Z" fill="#E4295D"/>
<path d="M237.979 120.676C238.05 120.564 237.865 120.32 237.567 120.131C237.268 119.943 236.968 119.88 236.897 119.992C236.826 120.104 237.011 120.348 237.31 120.536C237.608 120.725 237.908 120.788 237.979 120.676Z" fill="#3F3D56"/>
<path d="M236.93 118.595C237.009 118.471 237.111 118.363 237.232 118.279C237.352 118.194 237.488 118.134 237.631 118.102C237.775 118.07 237.923 118.066 238.068 118.091C238.213 118.116 238.352 118.169 238.476 118.248V118.248L252.676 127.225C252.8 127.304 252.907 127.406 252.992 127.526C253.077 127.646 253.137 127.782 253.169 127.925C253.202 128.068 253.205 128.217 253.18 128.361C253.155 128.506 253.101 128.644 253.023 128.769V128.769L236.93 118.595V118.595Z" fill="#E4295D"/>
<path d="M235.588 119.069L236.034 118.365C236.143 118.194 236.315 118.073 236.513 118.028C236.712 117.984 236.919 118.02 237.091 118.128V118.128L253.258 128.349C253.461 128.478 253.605 128.682 253.657 128.916C253.71 129.15 253.667 129.396 253.539 129.599L253.168 130.184L235.588 119.069Z" fill="#3F3D56"/>
<path d="M237.995 119.456L237.823 119.726L238.905 120.41L239.077 120.14L237.995 119.456Z" fill="#D0CDE1"/>
<path d="M239.482 120.397L239.311 120.667L240.393 121.351L240.564 121.081L239.482 120.397Z" fill="#D0CDE1"/>
<path d="M250.785 122.65C250.958 122.764 251.123 122.892 251.276 123.033L269.404 118.609L270.681 114.266L277.497 115.333L275.986 123.241C275.864 123.88 275.537 124.462 275.056 124.9C274.574 125.338 273.963 125.608 273.314 125.669L252.18 127.681C251.828 128.4 251.266 128.997 250.567 129.39C249.868 129.783 249.066 129.954 248.267 129.88C247.468 129.807 246.711 129.493 246.095 128.979C245.48 128.466 245.036 127.777 244.822 127.006C244.608 126.234 244.634 125.415 244.898 124.659C245.161 123.902 245.649 123.244 246.296 122.771C246.943 122.298 247.72 122.033 248.521 122.012C249.323 121.99 250.113 122.212 250.785 122.649V122.65Z" fill="#9E616A"/>
<path d="M268.855 117.712C268.727 117.505 268.646 117.273 268.617 117.031C268.588 116.79 268.611 116.546 268.685 116.314L271.269 101.093C271.469 99.8665 272.148 98.7689 273.157 98.0411C274.167 97.3134 275.424 97.0151 276.653 97.2115C277.883 97.4079 278.984 98.0831 279.716 99.089C280.447 100.095 280.749 101.349 280.556 102.577L280.432 118.226C280.428 118.469 280.372 118.709 280.268 118.928C280.163 119.147 280.012 119.342 279.826 119.498C279.639 119.654 279.421 119.768 279.187 119.832C278.952 119.896 278.706 119.909 278.466 119.87L270.026 118.496C269.785 118.457 269.556 118.367 269.354 118.231C269.152 118.096 268.982 117.919 268.855 117.712V117.712Z" fill="#E4295D"/>
<path d="M272.466 67.7064H272.466C270.537 67.7039 268.644 68.2232 266.987 69.2091H266.257C263.562 69.2091 260.978 70.2777 259.073 72.1799C257.168 74.0821 256.097 76.662 256.097 79.3522H261.741V91.3736H283.19V78.413C283.19 75.5734 282.06 72.8501 280.049 70.8423C278.038 68.8344 275.31 67.7064 272.466 67.7064V67.7064Z" fill="#2F2E41"/>
<path d="M334.552 244H178.282C178.223 244 178.165 243.989 178.11 243.966C178.056 243.944 178.006 243.911 177.965 243.869C177.923 243.828 177.89 243.779 177.867 243.724C177.845 243.67 177.833 243.612 177.833 243.553C177.833 243.494 177.845 243.436 177.867 243.381C177.89 243.327 177.923 243.278 177.965 243.236C178.006 243.194 178.056 243.161 178.11 243.139C178.165 243.117 178.223 243.105 178.282 243.105H334.552C334.611 243.105 334.669 243.117 334.724 243.139C334.778 243.161 334.828 243.194 334.87 243.236C334.911 243.278 334.945 243.327 334.967 243.381C334.99 243.436 335.001 243.494 335.001 243.553C335.001 243.612 334.99 243.67 334.967 243.724C334.945 243.779 334.911 243.828 334.87 243.869C334.828 243.911 334.778 243.944 334.724 243.966C334.669 243.989 334.611 244 334.552 244V244Z" fill="#CACACA"/>
</g>
<defs>
<clipPath id="clip0">
<rect width="276" height="205" fill="white" transform="translate(59 39)"/>
</clipPath>
</defs>
</svg>
