<svg width="662" height="479" viewBox="0 0 662 479" fill="none" xmlns="http://www.w3.org/2000/svg">
<g clip-path="url(#clip0)">
<circle cx="325" cy="256" r="325" fill="url(#paint0_radial)"/>
<path d="M98.1407 339.549C97.5975 338.726 96.8807 338.033 96.0407 337.517C95.2007 337.001 94.2579 336.676 93.2788 336.565C92.2997 336.453 91.3081 336.558 90.3737 336.871C89.4394 337.185 88.5852 337.7 87.8711 338.379L66.5854 327.384L67.9087 339.771L87.919 348.313C89.1394 349.438 90.7297 350.076 92.3885 350.105C94.0473 350.135 95.6594 349.555 96.9194 348.475C98.1793 347.395 98.9996 345.889 99.2247 344.244C99.4497 342.599 99.064 340.929 98.1406 339.549H98.1407Z" fill="#A0616A"/>
<path d="M79.2241 344.535C78.839 344.712 78.4209 344.806 77.9972 344.81C77.5735 344.815 77.1535 344.73 76.7647 344.561L56.5464 335.784C49.6333 332.784 44.0444 327.373 40.8193 320.558L30.1901 298.104C29.4056 297.095 28.8275 295.942 28.4888 294.709C28.1501 293.477 28.0575 292.19 28.2162 290.922C28.3749 289.654 28.7818 288.429 29.4137 287.318C30.0456 286.208 30.8901 285.233 31.8988 284.449C32.9076 283.665 34.0608 283.088 35.2926 282.75C36.5244 282.413 37.8105 282.322 39.0776 282.482C40.3446 282.643 41.5675 283.051 42.6766 283.685C43.7856 284.319 44.7589 285.165 45.5409 286.176L64.2246 320.867L81.4765 333.91C81.9703 334.285 82.3371 334.802 82.5273 335.393C82.7175 335.983 82.722 336.618 82.54 337.211L80.8467 342.684C80.6649 343.271 80.3086 343.789 79.8253 344.168C79.6401 344.314 79.4383 344.437 79.2241 344.535V344.535Z" fill="#CCCCCC"/>
<path d="M29.7223 271.697C38.815 271.697 46.1861 264.32 46.1861 255.22C46.1861 246.12 38.815 238.744 29.7223 238.744C20.6296 238.744 13.2585 246.12 13.2585 255.22C13.2585 264.32 20.6296 271.697 29.7223 271.697Z" fill="#A0616A"/>
<path d="M36.3911 471.363L44.6085 471.363L48.5185 439.64L36.389 439.64L36.3911 471.363Z" fill="#A0616A"/>
<path d="M60.458 478.999L34.6301 479L34.6296 469.013L50.4786 469.013C53.1252 469.012 55.6634 470.065 57.5349 471.937C59.4064 473.81 60.4579 476.35 60.458 478.999L60.458 478.999Z" fill="#2F2E41"/>
<path d="M9.5783 471.363L17.7958 471.363L21.7057 439.64L9.57629 439.64L9.5783 471.363Z" fill="#A0616A"/>
<path d="M33.6451 478.999L7.8172 479L7.81674 469.013L23.6657 469.013C26.3123 469.012 28.8505 470.065 30.722 471.937C32.5935 473.81 33.645 476.35 33.6451 478.999L33.6451 478.999Z" fill="#2F2E41"/>
<path d="M6.70849 462.283C6.42533 461.959 6.21454 461.579 6.09026 461.167C5.96598 460.755 5.93108 460.322 5.98789 459.896L20.3761 351.9L56.1233 357.975L59.9384 355.684L50.073 458.152C49.9909 458.843 49.6729 459.486 49.1727 459.97C48.6725 460.454 48.0207 460.751 47.3272 460.811L36.5031 461.713C36.0727 461.749 35.6397 461.693 35.2332 461.547C34.8268 461.401 34.4564 461.169 34.1471 460.867C33.8378 460.566 33.5968 460.201 33.4405 459.798C33.2842 459.395 33.2161 458.964 33.241 458.532L36.0434 409.734C36.0483 409.651 36.0223 409.569 35.9705 409.504C35.9187 409.439 35.8446 409.396 35.7627 409.383C35.6808 409.369 35.5969 409.387 35.5271 409.432C35.4574 409.477 35.4068 409.546 35.3851 409.626L21.5208 461.08C21.3475 461.72 20.9684 462.286 20.4421 462.69C19.9158 463.093 19.2715 463.312 18.6085 463.313H8.97803C8.5482 463.313 8.12332 463.221 7.7319 463.044C7.34047 462.866 6.99154 462.607 6.70849 462.283V462.283Z" fill="#E5E5E5"/>
<path d="M31.465 359.459C31.0547 359.087 30.5272 358.871 29.9742 358.848C29.4212 358.825 28.8776 358.996 28.4377 359.333L21.2909 364.896C20.9019 365.2 20.4445 365.403 19.9587 365.488C19.4729 365.574 18.9736 365.539 18.5045 365.386C18.0355 365.233 17.6111 364.967 17.2686 364.612C16.9261 364.257 16.6759 363.823 16.54 363.349C13.0344 351.062 5.09205 320.134 7.04868 298.367C8.15776 286.028 18.8042 276.651 30.7814 277.438C38.9697 277.984 44.3567 282.711 46.7927 291.488C52.7737 313.037 59.3466 352.564 60.6035 360.27C60.7027 360.867 60.619 361.481 60.3634 362.031C60.1079 362.58 59.6923 363.039 59.1713 363.348C55.7899 365.38 51.9263 366.468 47.9824 366.499C43.2103 366.499 37.4884 364.836 31.465 359.459Z" fill="#CCCCCC"/>
<path d="M34.1615 367.125C34.2416 366.142 34.1053 365.153 33.7623 364.229C33.4192 363.304 32.8778 362.466 32.1762 361.774C31.4746 361.081 30.6297 360.551 29.7012 360.221C28.7728 359.89 27.7832 359.768 26.8022 359.861L16.8333 338.064L10.2363 348.628L20.7144 367.708C20.981 369.346 21.8391 370.83 23.126 371.878C24.4129 372.926 26.0392 373.465 27.6967 373.394C29.3542 373.322 30.9278 372.644 32.1194 371.488C33.3109 370.333 34.0375 368.78 34.1615 367.125Z" fill="#A0616A"/>
<path d="M16.2022 359.365C15.7901 359.266 15.4034 359.082 15.0672 358.824C14.731 358.565 14.4528 358.239 14.2508 357.867L3.75409 338.473C0.164384 331.843 -0.896686 324.133 0.768255 316.779L6.25045 292.546C6.25542 291.268 6.51201 290.004 7.00554 288.825C7.49907 287.647 8.21987 286.577 9.12673 285.677C10.0336 284.778 11.1087 284.066 12.2907 283.582C13.4727 283.099 14.7383 282.853 16.0151 282.859C17.292 282.865 18.5552 283.123 19.7324 283.618C20.9096 284.114 21.9777 284.836 22.8757 285.744C23.7738 286.653 24.4841 287.73 24.9661 288.913C25.4481 290.096 25.6923 291.363 25.6848 292.641L18.9941 331.478L24.5267 352.395C24.684 352.995 24.6533 353.629 24.4389 354.211C24.2245 354.793 23.8366 355.295 23.3278 355.65L18.6201 358.911C18.1151 359.26 17.5156 359.448 16.9016 359.447C16.666 359.448 16.4312 359.42 16.2022 359.365V359.365Z" fill="#CCCCCC"/>
<path opacity="0.2" d="M24.3494 309.019L18.3165 334.511L27.0307 355.978L20.9978 335.182L24.3494 309.019Z" fill="black"/>
<path d="M20.3272 268.769C18.8627 268.796 17.4074 268.533 16.0452 267.994C15.4459 267.763 14.8237 267.573 14.2255 267.341C8.94225 265.299 5.46197 259.667 5.33732 254.001C5.21268 248.334 8.14507 242.833 12.4995 239.209C16.8538 235.584 22.4938 233.723 28.1414 233.293C34.2247 232.829 41.0747 234.373 44.474 239.443C45.3788 240.793 46.0116 242.43 45.4754 244.059C45.3148 244.551 45.028 244.992 44.6437 245.338C43.1256 246.69 41.6122 245.673 40.0646 245.584C37.9376 245.46 36.0271 247.183 35.3404 249.202C34.6537 251.22 34.956 253.443 35.5104 255.501C35.9328 256.74 36.1991 258.027 36.3031 259.332C36.3478 259.986 36.2249 260.641 35.9458 261.235C35.6668 261.828 35.241 262.34 34.7087 262.723C33.3795 263.527 31.634 263.062 30.304 262.259C28.974 261.456 27.8249 260.34 26.3883 259.749C24.9517 259.158 23.0216 259.289 22.1855 260.599C21.9198 261.076 21.7399 261.596 21.6542 262.135C20.9045 265.552 21.0768 265.351 20.3272 268.769L20.3272 268.769Z" fill="#2F2E41"/>
<path d="M507.657 154.616H100.772C99.2221 154.617 97.7361 155.234 96.6402 156.331C95.5443 157.427 94.928 158.914 94.9266 160.465V436.396C94.928 437.947 95.5443 439.434 96.6402 440.531C97.7361 441.628 99.2221 442.245 100.772 442.246H507.657C508.502 442.246 509.337 442.062 510.104 441.708C510.871 441.354 511.553 440.837 512.101 440.193C512.147 440.143 512.19 440.089 512.228 440.032C512.577 439.605 512.86 439.128 513.066 438.617C513.36 437.914 513.511 437.159 513.508 436.396V264.627H511.839V436.396C511.84 437.212 511.6 438.01 511.149 438.691C510.748 439.289 510.204 439.778 509.567 440.113C508.976 440.418 508.321 440.577 507.657 440.576H100.772C99.6648 440.574 98.6033 440.134 97.8203 439.35C97.0374 438.567 96.5969 437.504 96.5956 436.396V160.465C96.5969 159.357 97.0374 158.295 97.8203 157.512C98.6033 156.728 99.6648 156.287 100.772 156.286H507.657C508.765 156.286 509.828 156.726 510.612 157.51C511.396 158.293 511.838 159.356 511.839 160.465V197.543H513.508V160.465C513.507 158.913 512.889 157.426 511.792 156.329C510.695 155.232 509.208 154.616 507.657 154.616V154.616Z" fill="#CCCCCC"/>
<path d="M512.669 178.064H95.7587V179.736H512.669V178.064Z" fill="#CCCCCC"/>
<path d="M109.962 172.177C112.731 172.177 114.975 169.931 114.975 167.16C114.975 164.39 112.731 162.143 109.962 162.143C107.193 162.143 104.949 164.39 104.949 167.16C104.949 169.931 107.193 172.177 109.962 172.177Z" fill="#CCCCCC"/>
<path d="M124.374 172.177C127.143 172.177 129.387 169.931 129.387 167.16C129.387 164.39 127.143 162.143 124.374 162.143C121.606 162.143 119.361 164.39 119.361 167.16C119.361 169.931 121.606 172.177 124.374 172.177Z" fill="#CCCCCC"/>
<path d="M138.787 172.177C141.555 172.177 143.799 169.931 143.799 167.16C143.799 164.39 141.555 162.143 138.787 162.143C136.018 162.143 133.774 164.39 133.774 167.16C133.774 169.931 136.018 172.177 138.787 172.177Z" fill="#CCCCCC"/>
<path d="M239.476 408.425C237.75 408.417 236.054 407.978 234.54 407.149C233.027 406.319 231.744 405.125 230.808 403.674C229.872 402.224 229.312 400.562 229.179 398.84C229.046 397.118 229.345 395.39 230.047 393.813L241.99 367.147C232.584 358.821 225.057 348.587 219.909 337.125C214.762 325.663 212.111 313.236 212.133 300.669C212.133 251.574 252.044 211.631 301.102 211.631C350.161 211.631 390.072 251.574 390.072 300.669C390.072 349.765 350.161 389.708 301.102 389.708C292.52 389.7 283.985 388.441 275.766 385.973L245.286 406.623C243.574 407.793 241.55 408.421 239.476 408.425V408.425ZM301.102 224.055C285.225 224.045 269.738 228.98 256.789 238.173C243.839 247.367 234.068 260.365 228.83 275.365C223.593 290.365 223.147 306.624 227.557 321.889C231.966 337.154 241.011 350.667 253.438 360.557L257.201 363.56L244.351 392.254L273.839 372.275L276.751 373.254C287.269 376.79 298.43 377.996 309.46 376.786C320.49 375.576 331.126 371.981 340.629 366.249C350.133 360.517 358.277 352.785 364.498 343.59C370.719 334.394 374.868 323.955 376.657 312.996C378.445 302.036 377.831 290.818 374.858 280.12C371.884 269.421 366.621 259.498 359.434 251.037C352.246 242.577 343.307 235.782 333.235 231.122C323.163 226.463 312.199 224.052 301.102 224.055Z" fill="#CCCCCC"/>
<path d="M301.102 308.952C307.959 308.952 313.517 303.39 313.517 296.528C313.517 289.666 307.959 284.104 301.102 284.104C294.246 284.104 288.688 289.666 288.688 296.528C288.688 303.39 294.246 308.952 301.102 308.952Z" fill="#CCCCCC"/>
<path d="M265.928 308.952C272.785 308.952 278.343 303.39 278.343 296.528C278.343 289.666 272.785 284.104 265.928 284.104C259.072 284.104 253.514 289.666 253.514 296.528C253.514 303.39 259.072 308.952 265.928 308.952Z" fill="#CCCCCC"/>
<path d="M336.276 308.952C343.133 308.952 348.691 303.39 348.691 296.528C348.691 289.666 343.133 284.104 336.276 284.104C329.42 284.104 323.862 289.666 323.862 296.528C323.862 303.39 329.42 308.952 336.276 308.952Z" fill="#CCCCCC"/>
<path d="M613.284 247.354H495.308C493.886 247.354 492.522 246.789 491.516 245.782C490.51 244.776 489.945 243.411 489.945 241.988C489.945 240.564 490.51 239.199 491.516 238.193C492.522 237.186 493.886 236.621 495.308 236.621H613.284C614.707 236.621 616.071 237.186 617.076 238.193C618.082 239.199 618.647 240.564 618.647 241.988C618.647 243.411 618.082 244.776 617.076 245.782C616.071 246.789 614.707 247.354 613.284 247.354Z" fill="#CCCCCC"/>
<path d="M536.197 224.546H495.308C493.886 224.546 492.522 223.98 491.516 222.974C490.51 221.967 489.945 220.602 489.945 219.179C489.945 217.756 490.51 216.39 491.516 215.384C492.522 214.378 493.886 213.812 495.308 213.812H536.197C537.62 213.812 538.984 214.378 539.989 215.384C540.995 216.39 541.56 217.756 541.56 219.179C541.56 220.602 540.995 221.967 539.989 222.974C538.984 223.98 537.62 224.546 536.197 224.546Z" fill="#CCCCCC"/>
<path d="M441.872 253.894C454.459 253.894 464.663 243.682 464.663 231.085C464.663 218.488 454.459 208.276 441.872 208.276C429.285 208.276 419.081 218.488 419.081 231.085C419.081 243.682 429.285 253.894 441.872 253.894Z" fill="#E4295D"/>
<path d="M625.11 196.201H412.618C409.597 196.205 406.701 197.408 404.565 199.546C402.429 201.684 401.227 204.582 401.223 207.606V254.564C401.227 257.588 402.429 260.486 404.565 262.624C406.701 264.762 409.597 265.965 412.618 265.969H625.11C628.131 265.965 631.027 264.762 633.163 262.624C635.299 260.486 636.501 257.588 636.505 254.564V207.606C636.501 204.582 635.299 201.684 633.163 199.546C631.027 197.408 628.131 196.205 625.11 196.201V196.201ZM635.165 254.564C635.161 257.232 634.101 259.79 632.216 261.676C630.331 263.563 627.776 264.624 625.11 264.627H412.618C409.953 264.624 407.397 263.563 405.512 261.676C403.627 259.79 402.567 257.232 402.564 254.564V207.606C402.567 204.938 403.627 202.38 405.512 200.494C407.397 198.607 409.953 197.546 412.618 197.543H625.11C627.776 197.546 630.331 198.607 632.216 200.494C634.101 202.38 635.161 204.938 635.165 207.606V254.564Z" fill="#CCCCCC"/>
<path d="M635.165 214.985C643.68 214.985 650.582 208.077 650.582 199.555C650.582 191.034 643.68 184.126 635.165 184.126C626.65 184.126 619.747 191.034 619.747 199.555C619.747 208.077 626.65 214.985 635.165 214.985Z" fill="#E4295D"/>
<path d="M634.691 208.233C634.629 208.171 634.579 208.097 634.545 208.015C634.512 207.934 634.494 207.847 634.495 207.758V190.682C634.495 190.504 634.565 190.333 634.691 190.207C634.817 190.081 634.987 190.011 635.165 190.011C635.343 190.011 635.513 190.081 635.639 190.207C635.764 190.333 635.835 190.504 635.835 190.682V207.758C635.835 207.891 635.796 208.021 635.722 208.131C635.648 208.241 635.544 208.327 635.421 208.378C635.299 208.429 635.164 208.442 635.034 208.416C634.904 208.39 634.785 208.327 634.691 208.233V208.233Z" fill="white"/>
<path d="M626.159 199.694C626.065 199.601 626.001 199.481 625.976 199.351C625.95 199.221 625.963 199.086 626.014 198.963C626.065 198.841 626.15 198.736 626.261 198.662C626.371 198.589 626.5 198.549 626.633 198.549H643.697C643.874 198.549 644.045 198.62 644.171 198.746C644.296 198.871 644.367 199.042 644.367 199.22C644.367 199.398 644.296 199.569 644.171 199.694C644.045 199.82 643.874 199.891 643.697 199.891H626.633C626.545 199.891 626.458 199.874 626.376 199.84C626.295 199.806 626.221 199.757 626.159 199.694V199.694Z" fill="white"/>
<path d="M653.621 404.636H621.439C621.439 405.562 588.272 406.313 588.272 406.313C587.751 406.706 587.277 407.156 586.857 407.655C585.597 409.159 584.909 411.059 584.913 413.022V414.363C584.914 416.587 585.797 418.72 587.368 420.292C588.939 421.864 591.07 422.748 593.292 422.749H653.621C655.843 422.747 657.973 421.863 659.544 420.291C661.115 418.719 661.998 416.587 662 414.363V413.022C661.997 410.799 661.113 408.668 659.542 407.096C657.972 405.524 655.842 404.639 653.621 404.636Z" fill="#3F3D56"/>
<path d="M628.146 422.416H619.431V478.767H628.146V422.416Z" fill="#3F3D56"/>
<path d="M652.947 478.46C652.947 479.402 639.742 478.825 623.453 478.825C607.164 478.825 593.959 479.402 593.959 478.46C593.959 477.518 607.164 470.046 623.453 470.046C639.742 470.046 652.947 477.518 652.947 478.46Z" fill="#3F3D56"/>
<path d="M626.584 329.121C636.95 329.121 645.353 320.711 645.353 310.337C645.353 299.963 636.95 291.554 626.584 291.554C616.219 291.554 607.815 299.963 607.815 310.337C607.815 320.711 616.219 329.121 626.584 329.121Z" fill="#2F2E41"/>
<path d="M579.876 471.049L571.658 471.048L567.748 439.325L579.878 439.326L579.876 471.049Z" fill="#FFB8B8"/>
<path d="M565.788 468.698H581.637V478.685H555.809C555.809 476.036 556.86 473.496 558.732 471.623C560.603 469.75 563.141 468.698 565.788 468.698V468.698Z" fill="#2F2E41"/>
<path d="M567.048 466.458L559.207 463.995L564.966 432.556L576.539 436.191L567.048 466.458Z" fill="#FFB8B8"/>
<path d="M554.309 459.995L569.431 464.744L566.443 474.272L541.8 466.533C542.593 464.006 544.356 461.897 546.702 460.671C549.047 459.445 551.784 459.202 554.309 459.995V459.995Z" fill="#2F2E41"/>
<path d="M631.612 399.137C631.422 397.539 631.081 395.962 630.593 394.428L629.058 392.496L625.063 387.478L624.889 387.485C624.594 387.498 623.367 387.565 621.47 387.713H621.45C620.277 387.807 618.842 387.927 617.213 388.082C616.784 388.129 616.335 388.169 615.873 388.216V395.219H624.252C624.659 395.22 625.052 395.369 625.358 395.638C625.664 395.907 625.861 396.278 625.914 396.682C625.921 396.756 625.928 396.823 625.928 396.897C625.927 397.341 625.751 397.768 625.437 398.082C625.122 398.397 624.696 398.573 624.252 398.574H575.586C574.966 398.986 574.371 399.434 573.803 399.915C572.089 401.243 570.853 403.094 570.284 405.188C567.442 417.693 562.26 441.011 560.732 447.86C560.621 448.376 560.646 448.912 560.805 449.416C560.964 449.919 561.25 450.373 561.637 450.732C561.922 450.998 562.257 451.205 562.622 451.342L568.669 453.609C568.917 453.701 569.176 453.762 569.44 453.791C569.473 453.791 569.5 453.797 569.534 453.797C569.596 453.803 569.658 453.805 569.721 453.804C570.332 453.802 570.929 453.615 571.432 453.268C571.936 452.92 572.323 452.429 572.543 451.859L577.316 439.327L584.669 420.007L587.579 412.366C590.95 413.158 619.238 419.423 628.709 409.327C629.644 408.333 630.381 407.169 630.881 405.899C631.678 403.74 631.929 401.417 631.612 399.137Z" fill="#CCCCCC"/>
<path d="M639.816 400.962C639.669 400.365 639.502 399.748 639.307 399.124L633.777 392.174L633.603 392.181C633.254 392.201 631.598 392.288 629.058 392.496C626.176 392.737 622.147 393.126 617.622 393.737C617.488 393.75 617.348 393.77 617.213 393.791C616.771 393.851 616.322 393.911 615.873 393.978V395.219H624.252C624.659 395.22 625.052 395.369 625.358 395.638C625.664 395.907 625.861 396.278 625.914 396.682C625.921 396.756 625.928 396.823 625.928 396.897C625.927 397.341 625.751 397.768 625.437 398.082C625.122 398.397 624.696 398.573 624.252 398.574H594.637C593.343 398.996 592.096 399.439 590.903 399.915C584.643 402.397 579.957 405.651 578.998 409.884C578.676 411.306 578.321 412.869 577.946 414.533C576.552 420.718 574.856 428.292 573.321 435.175V435.182C573.006 436.604 572.691 437.986 572.389 439.327C571.109 445.097 570.023 449.987 569.446 452.556C569.433 452.63 569.42 452.697 569.406 452.771V452.784C569.339 453.304 569.404 453.832 569.594 454.321L569.6 454.327V454.334C569.785 454.802 570.085 455.215 570.472 455.535C570.731 455.749 571.023 455.919 571.337 456.038L577.383 458.305C577.72 458.431 578.076 458.497 578.435 458.5C578.939 458.501 579.435 458.374 579.876 458.131C580.51 457.787 581 457.228 581.257 456.554L594.275 422.368L596.293 417.062C599.664 417.854 627.952 424.113 637.424 414.023C639.295 411.996 640.363 409.356 640.427 406.597C640.493 404.699 640.287 402.801 639.816 400.962V400.962Z" fill="#CCCCCC"/>
<path d="M639.072 341.78C638.965 341.653 638.851 341.525 638.731 341.404C636.945 339.526 634.741 338.098 632.297 337.236C629.854 336.374 627.242 336.104 624.674 336.447C622.434 336.741 620.215 337.178 618.031 337.755C615.21 338.481 612.627 339.931 610.537 341.961C608.909 343.541 607.627 345.442 606.772 347.544C605.917 349.646 605.507 351.902 605.57 354.171C605.597 355.09 605.603 356.029 605.59 356.981C605.59 357.424 605.583 357.874 605.577 358.323H612.186C612.473 358.322 612.759 358.356 613.037 358.424C613.844 358.617 614.562 359.076 615.076 359.727C615.591 360.378 615.871 361.183 615.873 362.013V393.22C616.322 393.348 616.771 393.475 617.213 393.609C617.354 393.656 617.488 393.697 617.622 393.737C617.776 393.784 617.93 393.831 618.078 393.878C619.439 394.3 620.768 394.748 622.066 395.219H624.252C624.659 395.22 625.052 395.369 625.358 395.638C625.664 395.907 625.861 396.278 625.914 396.682C626.37 396.863 626.812 397.044 627.248 397.225C628.796 397.869 630.264 398.513 631.612 399.137C633.428 399.969 635.044 400.761 636.398 401.451C636.824 401.669 637.294 401.783 637.772 401.787C638.399 401.785 639.01 401.583 639.515 401.21C639.62 401.133 639.72 401.05 639.816 400.962C640.175 400.625 640.446 400.206 640.606 399.741C640.766 399.275 640.811 398.778 640.735 398.292C640.043 393.022 639.841 387.7 640.132 382.393C640.319 377.932 640.721 373.357 641.244 368.936C641.526 366.541 641.841 364.193 642.169 361.932C642.485 359.772 642.82 357.699 643.148 355.74C643.579 353.256 643.436 350.707 642.729 348.287C642.023 345.867 640.772 343.641 639.072 341.78V341.78Z" fill="#E4295D"/>
<path d="M611.596 342.33C611.252 342.182 610.898 342.059 610.537 341.961C608.751 341.48 606.851 341.658 605.185 342.462C603.518 343.266 602.197 344.643 601.461 346.342L596.856 356.981L596.279 358.323H612.186C612.473 358.322 612.759 358.356 613.037 358.424L613.573 357.183L615.611 352.473C616.421 350.595 616.453 348.472 615.7 346.571C614.947 344.669 613.471 343.144 611.596 342.33V342.33Z" fill="#E4295D"/>
<path d="M625.898 331.209C634.991 331.209 642.362 323.832 642.362 314.732C642.362 305.632 634.991 298.256 625.898 298.256C616.805 298.256 609.434 305.632 609.434 314.732C609.434 323.832 616.805 331.209 625.898 331.209Z" fill="#FFB8B8"/>
<path d="M609.138 306.637C616.936 311.401 625.728 314.3 634.829 315.109L632.121 311.861C634.093 312.591 636.167 313.003 638.268 313.083C640.366 313.05 642.565 312.242 643.756 310.513C644.287 309.653 644.602 308.678 644.675 307.669C644.748 306.661 644.577 305.651 644.175 304.723C643.35 302.874 642.065 301.266 640.444 300.054C637.569 297.779 634.177 296.25 630.57 295.605C626.963 294.96 623.252 295.218 619.768 296.356C617.378 297.071 615.238 298.445 613.593 300.32C612.032 302.247 609.027 303.964 609.826 306.312L609.138 306.637Z" fill="#E83741"/>
<path d="M628.666 293.34C623.474 288.07 617.19 284.004 610.257 281.427C605.807 279.777 600.964 278.757 596.311 279.694C591.659 280.631 587.259 283.852 585.961 288.421C584.9 292.156 585.996 296.178 587.643 299.694C589.29 303.211 591.489 306.472 592.821 310.119C594.18 313.841 594.589 317.844 594.01 321.764C593.431 325.684 591.883 329.397 589.507 332.567C587.131 335.736 584.001 338.261 580.402 339.913C576.803 341.565 572.848 342.291 568.898 342.026C573.469 342.639 577.682 344.789 582.151 345.934C586.619 347.078 591.892 347 595.213 343.797C598.726 340.407 598.796 334.897 598.626 330.016C598.374 322.761 598.121 315.506 597.869 308.251C597.74 304.551 597.63 300.732 598.963 297.279C600.297 293.825 603.465 290.801 607.164 290.833C609.968 290.856 612.45 292.556 614.698 294.232C616.946 295.909 619.326 297.697 622.119 297.946C624.912 298.196 628.1 296.128 627.891 293.329L628.666 293.34Z" fill="#E83741"/>
<path d="M642.169 361.932L632.772 362.187L632.088 368.795L631.934 370.325L617.213 376.939L615.873 377.543V389.303L617.213 388.92L621.45 387.713H621.47L640.132 382.393L640.346 382.333C641.854 381.897 643.181 380.986 644.13 379.735C645.08 378.484 645.6 376.96 645.615 375.389L645.662 367.587L645.702 361.838L642.169 361.932Z" fill="#FFB8B8"/>
<path d="M645.226 348.864C645.101 346.822 644.17 344.913 642.638 343.557C641.106 342.202 639.099 341.51 637.058 341.636C635.017 341.761 633.11 342.693 631.755 344.226C630.401 345.759 629.71 347.768 629.836 349.81L630.861 366.554C630.889 366.995 631.013 367.424 631.225 367.811C631.437 368.199 631.732 368.534 632.088 368.795C632.654 369.218 633.353 369.425 634.059 369.379L641.245 368.936L643.423 368.802C643.82 368.782 644.209 368.682 644.566 368.508C644.923 368.334 645.241 368.089 645.501 367.789C645.559 367.725 645.612 367.658 645.662 367.587C646.088 367.017 646.297 366.313 646.252 365.602L645.226 348.864Z" fill="#E4295D"/>
<path d="M618.078 393.878H617.214V393.791C616.771 393.851 616.322 393.911 615.873 393.978V395.219H622.067C620.766 394.75 619.437 394.303 618.078 393.878ZM618.078 393.878H617.214V393.791C616.771 393.851 616.322 393.911 615.873 393.978V395.219H622.067C620.766 394.75 619.437 394.303 618.078 393.878ZM624.252 393.878H617.214V362.013C617.211 360.922 616.855 359.861 616.199 358.99C615.542 358.119 614.621 357.485 613.574 357.183C613.124 357.047 612.656 356.979 612.186 356.981H552.528C551.195 356.983 549.917 357.514 548.975 358.457C548.032 359.4 547.502 360.679 547.5 362.013V394.884C547.501 396.218 548.031 397.498 548.973 398.441C549.916 399.385 551.194 399.915 552.528 399.915H624.252C624.994 399.914 625.711 399.639 626.263 399.143C626.816 398.647 627.167 397.964 627.248 397.225C627.262 397.116 627.269 397.006 627.268 396.897C627.267 396.096 626.949 395.329 626.384 394.763C625.818 394.197 625.052 393.879 624.252 393.878V393.878ZM625.928 396.897C625.928 397.341 625.751 397.768 625.437 398.082C625.122 398.397 624.696 398.573 624.252 398.574H552.528C551.55 398.573 550.613 398.184 549.921 397.492C549.23 396.801 548.841 395.862 548.841 394.884V362.013C548.841 361.034 549.23 360.096 549.921 359.404C550.613 358.713 551.55 358.324 552.528 358.323H612.186C612.473 358.322 612.759 358.356 613.037 358.424C613.844 358.617 614.562 359.076 615.077 359.727C615.591 360.378 615.871 361.183 615.873 362.013V395.219H624.252C624.659 395.22 625.052 395.369 625.358 395.638C625.664 395.907 625.862 396.278 625.914 396.682C625.921 396.756 625.928 396.823 625.928 396.897V396.897ZM618.078 393.878H617.214V393.791C616.771 393.851 616.322 393.911 615.873 393.978V395.219H622.067C620.766 394.75 619.437 394.303 618.078 393.878Z" fill="#CCCCCC"/>
<path d="M582.355 382.474C584.576 382.474 586.377 380.672 586.377 378.449C586.377 376.226 584.576 374.424 582.355 374.424C580.133 374.424 578.333 376.226 578.333 378.449C578.333 380.672 580.133 382.474 582.355 382.474Z" fill="#E4295D"/>
<path d="M223.119 47.8766C223.104 48.1831 223.113 48.4903 223.146 48.7954L202.097 66.4748L195.82 64.2002L191.152 73.2322L204.875 79.7699L227.887 53.9266C229.049 54.1375 230.248 53.9894 231.324 53.502C232.4 53.0146 233.302 52.211 233.91 51.198C234.519 50.185 234.804 49.0106 234.73 47.8311C234.655 46.6516 234.223 45.5228 233.492 44.5949C232.76 43.667 231.764 42.9839 230.635 42.6365C229.506 42.2891 228.299 42.2938 227.172 42.6501C226.046 43.0063 225.055 43.6972 224.331 44.6308C223.607 45.5644 223.184 46.6966 223.119 47.8766L223.119 47.8766Z" fill="#FFB8B8"/>
<path d="M194.888 77.5645L174.561 70.222C172.695 69.5479 171.173 68.1595 170.33 66.3623C169.487 64.5651 169.391 62.5063 170.065 60.6387C170.738 58.7712 172.126 57.2479 173.921 56.404C175.717 55.5601 177.775 55.4647 179.641 56.1388L199.967 63.4814C200.275 63.5926 200.558 63.7634 200.8 63.9841C201.042 64.2049 201.239 64.4711 201.378 64.7677C201.517 65.0643 201.596 65.3855 201.611 65.7128C201.627 66.0401 201.577 66.3673 201.466 66.6755L198.08 76.0646C197.855 76.6865 197.392 77.1937 196.794 77.4749C196.195 77.756 195.51 77.7883 194.888 77.5646V77.5645Z" fill="#CCCCCC"/>
<path d="M180.001 149.096L186.794 149.095L190.026 122.872L180 122.873L180.001 149.096Z" fill="#FFB8B8"/>
<path d="M199.896 155.408L178.546 155.409L178.545 147.153L191.646 147.153C193.834 147.153 195.932 148.022 197.479 149.571C199.026 151.119 199.896 153.218 199.896 155.408V155.408L199.896 155.408Z" fill="#2F2E41"/>
<path d="M163.212 140.313L168.769 144.224L186.485 124.633L178.283 118.863L163.212 140.313Z" fill="#FFB8B8"/>
<path d="M175.188 155.588L157.723 143.298L162.467 136.545L173.185 144.086C174.975 145.345 176.191 147.265 176.567 149.422C176.943 151.579 176.447 153.797 175.188 155.588V155.588L175.188 155.588Z" fill="#2F2E41"/>
<path d="M194.866 101.858C194.866 101.858 211.819 99.8564 208.776 110.866C205.733 121.875 171.827 131.384 171.827 131.384L194.866 101.858Z" fill="#FFB8B8"/>
<path d="M183.197 45.6821C190.714 45.6821 196.807 39.5842 196.807 32.0621C196.807 24.5399 190.714 18.442 183.197 18.442C175.681 18.442 169.588 24.5399 169.588 32.0621C169.588 39.5842 175.681 45.6821 183.197 45.6821Z" fill="#FFB8B8"/>
<path d="M139.796 129.129C132.052 120.105 129.342 106.255 141.691 94.7358C144.741 91.9608 148.195 89.6656 151.934 87.9286L161.887 60.0717C162.921 57.1627 164.817 54.6384 167.321 52.8355C169.825 51.0326 172.82 50.0369 175.904 49.9811C178.899 49.8517 181.861 50.6535 184.382 52.2762C186.903 53.8989 188.861 56.263 189.985 59.0438C191.201 61.8729 191.34 65.0493 190.376 67.9739C187.414 77.2081 183.523 86.1179 178.763 94.5663L179.278 98.6869L204.436 100.925L204.201 101.306C204.079 101.506 191.766 120.28 176.014 132.742C170.628 137.003 165.059 138.769 159.803 138.769C151.832 138.768 144.582 134.707 139.796 129.129Z" fill="#CCCCCC"/>
<path d="M137.421 36.3351C139.829 33.4637 140.862 29.7081 141.692 26.053C143.007 20.2698 144.024 14.2898 146.945 9.12896C149.865 3.96817 155.232 -0.308063 161.149 0.017436C167.033 0.341077 171.789 5.07836 174.314 10.4684C174.926 10.2308 175.58 10.1243 176.235 10.1559C176.891 10.1875 177.532 10.3565 178.118 10.6519C179.937 11.6493 180.618 14.484 179.103 15.903C180.696 15.1438 182.431 14.7287 184.195 14.6847C185.959 14.6407 187.713 14.9688 189.341 15.6476C191.436 16.5401 193.244 17.9934 194.567 19.8479C195.89 21.7023 196.675 23.8859 196.838 26.1585C196.902 27.0809 196.775 28.0065 196.466 28.8779C196.158 29.7494 195.674 30.5481 195.044 31.2246C192.433 33.9149 188.74 32.9869 185.456 32.3016C182.354 31.6543 178.576 31.4795 176.829 34.4371C176.141 35.6695 175.948 37.1184 176.29 38.4881C176.96 41.4405 179.144 43.497 181.263 45.4652L181.609 46.1095C174.128 47.5697 165.957 42.456 163.995 35.0846C162.032 27.7131 166.576 19.2091 173.792 16.75C173.312 16.765 172.837 16.6513 172.415 16.4208C171.993 16.1904 171.641 15.8514 171.394 15.4389C171.147 15.0264 171.014 14.5555 171.01 14.0746C171.006 13.5938 171.13 13.1206 171.37 12.7038C169.372 11.584 167.112 11.0196 164.823 11.0692C161.096 11.3139 157.87 13.9691 155.93 17.1637C153.991 20.3583 153.112 24.0663 152.222 27.6969C151.333 31.3275 150.37 35.0276 148.296 38.1365C146.859 40.2899 144.94 42.0774 142.69 43.3564C140.441 44.6354 137.924 45.3706 135.34 45.5032C132.756 45.6358 130.177 45.1623 127.809 44.1203C125.441 43.0783 123.348 41.4968 121.699 39.5018C124.305 40.7666 127.254 41.1417 130.093 40.5697C132.933 39.9978 135.507 38.5103 137.421 36.3351Z" fill="#E4295D"/>
<path d="M237.38 73.4529C248.305 73.4529 257.162 64.5892 257.162 53.6552C257.162 42.7212 248.305 33.8574 237.38 33.8574C226.454 33.8574 217.597 42.7212 217.597 53.6552C217.597 64.5892 226.454 73.4529 237.38 73.4529Z" fill="#E4295D"/>
<path d="M236.771 64.7893C236.692 64.7095 236.628 64.6146 236.585 64.5101C236.542 64.4057 236.519 64.2937 236.52 64.1806V42.2689C236.52 42.0406 236.61 41.8217 236.772 41.6603C236.933 41.4989 237.152 41.4082 237.38 41.4082C237.608 41.4082 237.827 41.4989 237.988 41.6603C238.149 41.8217 238.24 42.0406 238.24 42.2689V64.1806C238.24 64.3509 238.189 64.5173 238.095 64.6588C238 64.8003 237.866 64.9106 237.709 64.9758C237.552 65.0409 237.379 65.058 237.212 65.0248C237.045 64.9916 236.892 64.9096 236.772 64.7893H236.771Z" fill="white"/>
<path d="M225.824 53.8335C225.704 53.7131 225.622 53.5597 225.589 53.3927C225.556 53.2258 225.573 53.0527 225.638 52.8955C225.703 52.7382 225.813 52.6038 225.954 52.5092C226.096 52.4146 226.262 52.3641 226.432 52.3641H248.327C248.555 52.3641 248.774 52.4548 248.935 52.6162C249.096 52.7776 249.187 52.9965 249.187 53.2248C249.187 53.4531 249.096 53.672 248.935 53.8334C248.774 53.9948 248.555 54.0855 248.327 54.0855H226.432C226.319 54.0857 226.207 54.0635 226.103 54.0202C225.999 53.977 225.904 53.9135 225.824 53.8335Z" fill="white"/>
<path d="M223.8 66.8973C223.657 67.1683 223.535 67.4503 223.435 67.7406L196.873 74.7898L192.157 70.0609L184.096 76.2508L193.742 88.0061L225.548 74.4019C226.51 75.0872 227.658 75.463 228.839 75.4795C230.019 75.4959 231.177 75.1522 232.158 74.494C233.139 73.8359 233.896 72.8944 234.33 71.795C234.763 70.6955 234.852 69.4901 234.584 68.339C234.316 67.188 233.704 66.1458 232.83 65.3512C231.955 64.5566 230.86 64.0471 229.69 63.8906C228.519 63.7341 227.329 63.9379 226.277 64.475C225.225 65.0121 224.361 65.8569 223.8 66.8972L223.8 66.8973Z" fill="#FFB8B8"/>
<path d="M185.638 81.7615L170.357 66.4689C169.661 65.7742 169.108 64.9488 168.73 64.04C168.353 63.1312 168.158 62.1569 168.157 61.1727C168.157 60.1885 168.35 59.2138 168.726 58.3044C169.102 57.3949 169.653 56.5686 170.348 55.8727C171.044 55.1768 171.869 54.6249 172.778 54.2487C173.687 53.8724 174.661 53.6792 175.644 53.6801C176.628 53.6809 177.601 53.8758 178.509 54.2536C179.417 54.6314 180.242 55.1847 180.936 55.8818L196.217 71.1744C196.449 71.4061 196.632 71.6811 196.758 71.9839C196.883 72.2866 196.947 72.6111 196.947 72.9387C196.947 73.2664 196.883 73.5909 196.758 73.8936C196.632 74.1963 196.449 74.4714 196.217 74.7031L189.164 81.7616C188.696 82.2287 188.062 82.491 187.401 82.491C186.74 82.491 186.106 82.2287 185.638 81.7616V81.7615Z" fill="#CCCCCC"/>
</g>
<defs>
<radialGradient id="paint0_radial" cx="0" cy="0" r="1" gradientUnits="userSpaceOnUse" gradientTransform="translate(325 256) rotate(90) scale(325)">
<stop stop-color="#C4C4C4" stop-opacity="0.08"/>
<stop offset="1" stop-color="#C4C4C4" stop-opacity="0"/>
</radialGradient>
<clipPath id="clip0">
<rect width="662" height="479" fill="white"/>
</clipPath>
</defs>
</svg>
