<svg width="35" height="35" viewBox="0 0 35 35" fill="none" xmlns="http://www.w3.org/2000/svg">
<path d="M3 5.75C3 4.75544 3.39509 3.80161 4.09835 3.09835C4.80161 2.39509 5.75544 2 6.75 2H21.75C22.7446 2 23.6984 2.39509 24.4016 3.09835C25.1049 3.80161 25.5 4.75544 25.5 5.75V9.5H29.25C30.2446 9.5 31.1984 9.89509 31.9016 10.5983C32.6049 11.3016 33 12.2554 33 13.25V28.25C33 29.2446 32.6049 30.1984 31.9016 30.9016C31.1984 31.6049 30.2446 32 29.25 32H14.25C13.2554 32 12.3016 31.6049 11.5983 30.9016C10.8951 30.1984 10.5 29.2446 10.5 28.25V24.5H6.75C5.75544 24.5 4.80161 24.1049 4.09835 23.4016C3.39509 22.6984 3 21.7446 3 20.75V5.75ZM12.375 24.5V28.25C12.375 28.7473 12.5725 29.2242 12.9242 29.5758C13.2758 29.9275 13.7527 30.125 14.25 30.125H29.25C29.7473 30.125 30.2242 29.9275 30.5758 29.5758C30.9275 29.2242 31.125 28.7473 31.125 28.25V13.25C31.125 12.7527 30.9275 12.2758 30.5758 11.9242C30.2242 11.5725 29.7473 11.375 29.25 11.375H25.5V20.75C25.5 21.7446 25.1049 22.6984 24.4016 23.4016C23.6984 24.1049 22.7446 24.5 21.75 24.5H12.375Z" fill="white"/>
</svg>
