<svg width="24" height="24" viewBox="0 0 24 24" fill="none" xmlns="http://www.w3.org/2000/svg">
<g clip-path="url(#clip0)">
<path fill-rule="evenodd" clip-rule="evenodd" d="M14.9605 18.6612C14.9605 18.8575 14.8826 19.0458 14.7438 19.1846C14.6049 19.3234 14.4167 19.4013 14.2204 19.4013H2.37829C2.182 19.4013 1.99374 19.3234 1.85494 19.1846C1.71614 19.0458 1.63816 18.8575 1.63816 18.6612V5.33883C1.63816 5.14254 1.71614 4.95428 1.85494 4.81548C1.99374 4.67668 2.182 4.5987 2.37829 4.5987H14.2204C14.4167 4.5987 14.6049 4.67668 14.7438 4.81548C14.8826 4.95428 14.9605 5.14254 14.9605 5.33883V8.29936C14.9605 8.49566 15.0385 8.68391 15.1773 8.82271C15.3161 8.96151 15.5044 9.03949 15.7007 9.03949C15.897 9.03949 16.0852 8.96151 16.224 8.82271C16.3628 8.68391 16.4408 8.49566 16.4408 8.29936V5.33883C16.4408 4.74995 16.2069 4.18518 15.7905 3.76878C15.374 3.35237 14.8093 3.11844 14.2204 3.11844H2.37829C1.78941 3.11844 1.22464 3.35237 0.808236 3.76878C0.391832 4.18518 0.157898 4.74995 0.157898 5.33883L0.157898 18.6612C0.157898 19.2501 0.391832 19.8149 0.808236 20.2313C1.22464 20.6477 1.78941 20.8816 2.37829 20.8816H14.2204C14.8093 20.8816 15.374 20.6477 15.7905 20.2313C16.2069 19.8149 16.4408 19.2501 16.4408 18.6612V15.7007C16.4408 15.5044 16.3628 15.3161 16.224 15.1773C16.0852 15.0385 15.897 14.9605 15.7007 14.9605C15.5044 14.9605 15.3161 15.0385 15.1773 15.1773C15.0385 15.3161 14.9605 15.5044 14.9605 15.7007V18.6612Z" fill="white"/>
<path fill-rule="evenodd" clip-rule="evenodd" d="M23.626 12.524C23.6949 12.4553 23.7496 12.3736 23.7869 12.2837C23.8242 12.1938 23.8434 12.0974 23.8434 12C23.8434 11.9026 23.8242 11.8063 23.7869 11.7163C23.7496 11.6264 23.6949 11.5447 23.626 11.476L19.1852 7.0352C19.0462 6.89622 18.8577 6.81815 18.6612 6.81815C18.4646 6.81815 18.2761 6.89622 18.1372 7.0352C17.9982 7.17418 17.9201 7.36267 17.9201 7.55921C17.9201 7.75576 17.9982 7.94425 18.1372 8.08323L21.3153 11.2599H8.29934C8.10304 11.2599 7.91479 11.3378 7.77598 11.4766C7.63718 11.6155 7.5592 11.8037 7.5592 12C7.5592 12.1963 7.63718 12.3846 7.77598 12.5234C7.91479 12.6622 8.10304 12.7401 8.29934 12.7401H21.3153L18.1372 15.9168C17.9982 16.0558 17.9201 16.2442 17.9201 16.4408C17.9201 16.6373 17.9982 16.8258 18.1372 16.9648C18.2761 17.1038 18.4646 17.1819 18.6612 17.1819C18.8577 17.1819 19.0462 17.1038 19.1852 16.9648L23.626 12.524V12.524Z" fill="white"/>
</g>
<defs>
<clipPath id="clip0">
<rect width="23.6842" height="23.6842" fill="white" transform="translate(0.157898 0.157898)"/>
</clipPath>
</defs>
</svg>
