<svg width="27" height="28" viewBox="0 0 27 28" fill="none" xmlns="http://www.w3.org/2000/svg">
<path d="M8.4375 14C8.4375 14.4641 8.25971 14.9092 7.94324 15.2374C7.62677 15.5656 7.19755 15.75 6.75 15.75C6.30245 15.75 5.87322 15.5656 5.55676 15.2374C5.24029 14.9092 5.0625 14.4641 5.0625 14C5.0625 13.5359 5.24029 13.0908 5.55676 12.7626C5.87322 12.4344 6.30245 12.25 6.75 12.25C7.19755 12.25 7.62677 12.4344 7.94324 12.7626C8.25971 13.0908 8.4375 13.5359 8.4375 14ZM15.1875 14C15.1875 14.4641 15.0097 14.9092 14.6932 15.2374C14.3768 15.5656 13.9476 15.75 13.5 15.75C13.0524 15.75 12.6232 15.5656 12.3068 15.2374C11.9903 14.9092 11.8125 14.4641 11.8125 14C11.8125 13.5359 11.9903 13.0908 12.3068 12.7626C12.6232 12.4344 13.0524 12.25 13.5 12.25C13.9476 12.25 14.3768 12.4344 14.6932 12.7626C15.0097 13.0908 15.1875 13.5359 15.1875 14ZM20.25 15.75C20.6976 15.75 21.1268 15.5656 21.4432 15.2374C21.7597 14.9092 21.9375 14.4641 21.9375 14C21.9375 13.5359 21.7597 13.0908 21.4432 12.7626C21.1268 12.4344 20.6976 12.25 20.25 12.25C19.8024 12.25 19.3732 12.4344 19.0568 12.7626C18.7403 13.0908 18.5625 13.5359 18.5625 14C18.5625 14.4641 18.7403 14.9092 19.0568 15.2374C19.3732 15.5656 19.8024 15.75 20.25 15.75Z" fill="white"/>
<path d="M3.65344 27.6553L3.68719 27.6483C6.77531 27.013 8.66194 26.1748 9.53944 25.7145C10.8314 26.0718 12.1629 26.2519 13.5 26.25C20.9554 26.25 27 20.7655 27 14C27 7.2345 20.9554 1.75 13.5 1.75C6.04462 1.75 0 7.2345 0 14C0 17.08 1.25381 19.8975 3.32438 22.05C3.17952 23.4327 2.88284 24.7937 2.44012 26.1065L2.43506 26.1257C2.30925 26.5018 2.17193 26.8735 2.02331 27.2405C1.89 27.566 2.14819 27.93 2.484 27.874C2.87493 27.8077 3.26479 27.7347 3.65344 27.6553ZM5.00344 22.2162C5.02708 21.96 4.99593 21.7016 4.91221 21.4593C4.8285 21.217 4.69428 20.9968 4.51912 20.8145C2.73038 18.9525 1.6875 16.569 1.6875 14C1.6875 8.414 6.75675 3.5 13.5 3.5C20.2432 3.5 25.3125 8.414 25.3125 14C25.3125 19.5877 20.2432 24.5 13.5 24.5C12.3105 24.5018 11.1259 24.3418 9.9765 24.024C9.57484 23.9124 9.14758 23.9585 8.77669 24.1535C8.12363 24.4965 6.68419 25.151 4.33181 25.7162C4.65999 24.5737 4.88484 23.402 5.00344 22.2162Z" fill="white"/>
</svg>
