<svg width="50" height="50" viewBox="0 0 50 50" fill="none" xmlns="http://www.w3.org/2000/svg">
<path d="M34.375 18.75C34.375 21.2364 33.3873 23.621 31.6291 25.3791C29.871 27.1373 27.4864 28.125 25 28.125C22.5136 28.125 20.129 27.1373 18.3709 25.3791C16.6127 23.621 15.625 21.2364 15.625 18.75C15.625 16.2636 16.6127 13.879 18.3709 12.1209C20.129 10.3627 22.5136 9.375 25 9.375C27.4864 9.375 29.871 10.3627 31.6291 12.1209C33.3873 13.879 34.375 16.2636 34.375 18.75Z" fill="url(#paint0_linear)"/>
<path d="M7.5219 38.9684L7.96394 39.5215L8.33733 38.9199C10.4513 35.5138 15.1611 31.75 25 31.75C34.8389 31.75 39.5457 35.5107 41.6627 38.92L42.0362 39.5214L42.4781 38.9684C45.1086 35.6767 46.7562 31.7092 47.2312 27.5225C47.7062 23.3357 46.9894 19.1 45.1632 15.3027C43.337 11.5054 40.4757 8.30087 36.9086 6.05805C33.3415 3.81523 29.2136 2.62522 25 2.625H25C20.7864 2.62522 16.6585 3.81523 13.0914 6.05805C9.52427 8.30087 6.66297 11.5054 4.83679 15.3027C3.01061 19.1 2.29378 23.3357 2.76881 27.5225C3.24384 31.7092 4.89141 35.6767 7.5219 38.9684ZM0.5 25C0.5 18.5022 3.08124 12.2705 7.67588 7.67588C12.2705 3.08124 18.5022 0.5 25 0.5C31.4978 0.5 37.7295 3.08124 42.3241 7.67588C46.9188 12.2705 49.5 18.5022 49.5 25C49.5 31.4978 46.9188 37.7295 42.3241 42.3241C37.7295 46.9188 31.4978 49.5 25 49.5C18.5022 49.5 12.2705 46.9188 7.67588 42.3241C3.08124 37.7295 0.5 31.4978 0.5 25Z" fill="url(#paint1_linear)" stroke="url(#paint2_linear)"/>
<defs>
<linearGradient id="paint0_linear" x1="3.07018" y1="52.193" x2="48.2456" y2="-0.438598" gradientUnits="userSpaceOnUse">
<stop stop-color="#DD1581"/>
<stop offset="1" stop-color="#E83741"/>
</linearGradient>
<linearGradient id="paint1_linear" x1="1.56201e-06" y1="50" x2="50" y2="-1.41822e-06" gradientUnits="userSpaceOnUse">
<stop stop-color="#DD1581"/>
<stop offset="1" stop-color="#E83741"/>
</linearGradient>
<linearGradient id="paint2_linear" x1="-8.33289e-08" y1="50" x2="50" y2="-8.33289e-08" gradientUnits="userSpaceOnUse">
<stop stop-color="#DD1581"/>
<stop offset="1" stop-color="#E83741"/>
</linearGradient>
</defs>
</svg>
